<svg width="116" height="155" viewBox="0 0 116 155" fill="none" xmlns="http://www.w3.org/2000/svg">
<path d="M45.111 155C44.2637 154.999 43.4249 154.832 42.6424 154.507C41.8599 154.182 41.149 153.706 40.5506 153.106C39.9521 152.507 39.4777 151.795 39.1545 151.012C38.8313 150.229 38.6657 149.389 38.667 148.542V142.084C37.8196 142.084 36.9806 141.916 36.198 141.591C35.4154 141.267 34.7045 140.791 34.1059 140.191C33.5074 139.591 33.0329 138.879 32.7096 138.096C32.3864 137.313 32.2206 136.473 32.222 135.626V129.168C31.3747 129.168 30.5358 129 29.7532 128.675C28.9707 128.35 28.2598 127.875 27.6613 127.275C27.0628 126.675 26.5885 125.963 26.2653 125.18C25.9421 124.397 25.7765 123.557 25.778 122.71V116.25C25.778 116.137 25.835 116.043 25.841 115.935C23.083 115.203 21.051 112.635 19.333 109.792L3.374 77.5C0.250838 68.7474 -0.723431 59.3725 0.533241 50.1647C1.78991 40.957 5.24071 32.1859 10.5951 24.5903C15.9494 16.9947 23.0505 10.797 31.3004 6.51892C39.5503 2.24087 48.7073 0.0078125 58.0005 0.0078125C67.2936 0.0078125 76.4507 2.24087 84.7005 6.51892C92.9504 10.797 100.052 16.9947 105.406 24.5903C110.76 32.1859 114.211 40.957 115.468 50.1647C116.724 59.3725 115.75 68.7474 112.627 77.5L96.667 109.791C95.32 112.496 92.9669 115.091 90.1469 115.897C90.178 116.013 90.203 116.131 90.222 116.25V122.708C90.2234 123.555 90.0578 124.395 89.7347 125.178C89.4115 125.961 88.9371 126.673 88.3387 127.273C87.7402 127.873 87.0293 128.348 86.2467 128.673C85.4642 128.998 84.6253 129.166 83.778 129.166V135.624C83.7793 136.471 83.6136 137.311 83.2903 138.094C82.9671 138.877 82.4926 139.589 81.894 140.189C81.2955 140.789 80.5845 141.265 79.8019 141.589C79.0193 141.914 78.1803 142.082 77.333 142.082V148.54C77.3343 149.387 77.1686 150.227 76.8454 151.01C76.5222 151.793 76.0478 152.505 75.4494 153.104C74.8509 153.704 74.1401 154.18 73.3576 154.505C72.5751 154.83 71.7362 154.997 70.889 154.998L45.111 155ZM45.111 148.542H70.889V142.084H45.111V148.542ZM38.667 135.625H77.333V129.167H38.667V135.625ZM32.222 122.708H83.778V116.25H32.222V122.708ZM12.889 58.125C12.8962 64.8302 14.3994 71.4494 17.289 77.5L30.349 103.333H85.794L98.714 77.5C101.638 71.3862 103.147 64.6924 103.129 57.9156C103.111 51.1387 101.567 44.453 98.6107 38.3547C95.6548 32.2565 91.3631 26.9024 86.0544 22.6901C80.7456 18.4778 74.5562 15.5156 67.9457 14.0232C61.3352 12.5308 54.4734 12.5468 47.8699 14.0698C41.2664 15.5928 35.0908 18.5838 29.8017 22.8207C24.5125 27.0576 20.2457 32.4315 17.3182 38.5434C14.3906 44.6553 12.8774 51.3481 12.891 58.125H12.889ZM90.222 58.125C90.2268 53.8889 89.3972 49.6933 87.7805 45.7778C86.1638 41.8624 83.7916 38.3036 80.7995 35.305C77.8073 32.3064 74.2538 29.9265 70.3418 28.3013C66.4299 26.6761 62.2361 25.8373 58 25.833V19.375C68.266 19.3864 78.1071 23.4753 85.3584 30.7422C92.6098 38.0092 96.6776 47.859 96.667 58.125H90.222Z" fill="#E3D5B8"/>
</svg>
