<svg width="137" height="137" viewBox="0 0 137 137" fill="none" xmlns="http://www.w3.org/2000/svg">
<path d="M84.63 68.489L95.672 57.448C100.836 59.4784 106.48 59.9578 111.913 58.8271C117.345 57.6965 122.33 55.0051 126.255 51.083L130.29 47.048C132.41 44.9281 134.092 42.4113 135.24 39.6413C136.388 36.8713 136.978 33.9023 136.978 30.904C136.978 27.9057 136.388 24.9367 135.24 22.1667C134.092 19.3967 132.41 16.8799 130.29 14.76L126.255 18.795L110.114 34.936C109.044 36.0063 107.592 36.6075 106.078 36.6075C104.565 36.6075 103.113 36.0063 102.043 34.936C100.973 33.8657 100.371 32.4141 100.371 30.9005C100.371 29.3869 100.973 27.9353 102.043 26.865L118.184 10.724L122.22 6.68799C120.1 4.5678 117.583 2.88597 114.813 1.73853C112.043 0.591077 109.074 0.000488281 106.076 0.000488281C103.078 0.000488281 100.109 0.591077 97.3388 1.73853C94.5688 2.88597 92.052 4.5678 89.932 6.68799L85.897 10.724C81.9751 14.6491 79.2838 19.6334 78.1532 25.0657C77.0226 30.4979 77.5018 36.1421 79.532 41.306L64.455 56.383L10.891 2.82001L0 0L2.82001 10.891L56.383 64.453L5.18301 115.653C3.06514 117.798 1.88185 120.694 1.89145 123.708C1.90105 126.723 3.10274 129.611 5.23422 131.743C7.36571 133.874 10.2539 135.076 13.2683 135.086C16.2828 135.096 19.1787 133.913 21.324 131.795L68.488 84.631L117.488 133.631C119.629 135.772 122.532 136.974 125.559 136.974C128.586 136.974 131.489 135.772 133.63 133.631C135.771 131.49 136.973 128.587 136.973 125.56C136.973 122.533 135.771 119.63 133.63 117.489L84.63 68.489ZM89.93 14.759L93.971 10.724C96.4714 8.23102 99.6838 6.57535 103.165 5.98535C106.646 5.39536 110.225 5.90011 113.407 7.42999L98.007 22.83C96.9359 23.8874 96.0845 25.1461 95.5018 26.5338C94.9191 27.9215 94.6165 29.4108 94.6117 30.9158C94.6068 32.4209 94.8996 33.9121 95.4733 35.3035C96.047 36.695 96.8902 37.9593 97.9544 39.0236C99.0187 40.0878 100.283 40.9312 101.674 41.5049C103.066 42.0787 104.557 42.3716 106.062 42.3668C107.567 42.362 109.056 42.0596 110.444 41.477C111.832 40.8944 113.091 40.043 114.148 38.972L129.548 23.572C131.077 26.7553 131.582 30.3346 130.992 33.8167C130.402 37.2988 128.747 40.5121 126.254 43.014L122.219 47.049C117.937 51.3307 112.13 53.7361 106.075 53.7361C100.02 53.7361 94.2127 51.3307 89.931 47.049C85.6493 42.7674 83.2439 36.9602 83.2439 30.905C83.2439 24.8499 85.6493 19.0426 89.931 14.761L89.93 14.759ZM82.267 46.64C84.3866 49.8459 87.1314 52.591 90.337 54.711L76.56 68.489L68.489 60.419L82.267 46.64ZM17.289 127.759C16.2187 128.828 14.7678 129.428 13.2553 129.427C11.7428 129.427 10.2923 128.826 9.22272 127.756C8.15313 126.687 7.55191 125.236 7.55121 123.724C7.55051 122.211 8.15039 120.76 9.21899 119.69L17.289 111.619L25.36 119.69L17.289 127.759ZM21.324 107.583L60.417 68.489L68.488 76.56L29.4 115.653L21.324 107.583ZM73.1 81.169L81.171 73.099L117.494 109.422L109.424 117.493L73.1 81.169ZM129.6 129.599C129.07 130.129 128.441 130.549 127.749 130.836C127.056 131.123 126.314 131.271 125.565 131.271C124.816 131.271 124.074 131.123 123.381 130.836C122.689 130.549 122.06 130.129 121.53 129.599L113.459 121.528L121.53 113.458L129.6 121.528C130.13 122.058 130.551 122.687 130.838 123.38C131.125 124.072 131.273 124.814 131.273 125.564C131.273 126.314 131.125 127.056 130.838 127.748C130.551 128.441 130.13 129.07 129.6 129.6V129.599Z" fill="#E3D5B8"/>
</svg>
